<?xml version="1.0" ?><svg enable-background="new 0 0 32 32" version="1.1" viewBox="0 0 32 32" xml:space="preserve" xmlns="http://www.w3.org/2000/svg" xmlns:xlink="http://www.w3.org/1999/xlink"><g id="Layer_4_copy"><path d="M16,0C7.178,0,0,7.178,0,16c0,8.822,7.178,16,16,16s16-7.178,16-16C32,7.178,24.822,0,16,0L16,0z" fill="#DDDDDD"/><path d="M16,1.625C8.074,1.625,1.625,8.074,1.625,16c0,7.926,6.449,14.375,14.375,14.375S30.375,23.926,30.375,16   C30.375,8.074,23.926,1.625,16,1.625L16,1.625z"/><path d="M16,1.625L16,1.625C8.074,1.625,1.625,8.074,1.625,16c0,7.926,6.449,14.375,14.375,14.375   V1.625z" fill="#FFFFFF" opacity="0.22"/></g><g id="Official_copy_2"><path d="M13.892,24.123h3.357v-8.124h2.239l0.297-2.799h-2.536l0.003-1.402c0-0.73,0.07-1.121,1.117-1.121h1.4v-2.8   h-2.24c-2.69,0-3.637,1.358-3.637,3.642V13.2h-1.677V16h1.677V24.123z" fill="#FFFFFF"/></g></svg>