<?xml version="1.0" ?><svg enable-background="new 0 0 32 32" version="1.1" viewBox="0 0 32 32" xml:space="preserve" xmlns="http://www.w3.org/2000/svg" xmlns:xlink="http://www.w3.org/1999/xlink"><g id="Layer_4_copy"><path d="M16,0C7.178,0,0,7.178,0,16c0,8.822,7.178,16,16,16s16-7.178,16-16C32,7.178,24.822,0,16,0L16,0z" fill="#DDDDDD"/><path d="M16,1.625C8.074,1.625,1.625,8.074,1.625,16c0,7.926,6.449,14.375,14.375,14.375S30.375,23.926,30.375,16   C30.375,8.074,23.926,1.625,16,1.625L16,1.625z"/><path d="M16,1.625L16,1.625C8.074,1.625,1.625,8.074,1.625,16c0,7.926,6.449,14.375,14.375,14.375   V1.625z" fill="#FFFFFF" opacity="0.22"/></g><g id="Official_copy_2"><path d="M23.247,21.927v-5.36c0-2.872-1.533-4.208-3.577-4.208c-1.649,0-2.388,0.907-2.8,1.544v-1.324h-3.107   c0.041,0.877,0,9.348,0,9.348h3.107v-5.221c0-0.279,0.02-0.558,0.103-0.757c0.224-0.558,0.735-1.136,1.593-1.136   c1.125,0,1.574,0.857,1.574,2.113v5.001L23.247,21.927L23.247,21.927z M10.49,11.303c1.083,0,1.758-0.718,1.758-1.616   c-0.02-0.917-0.675-1.614-1.738-1.614S8.753,8.77,8.753,9.687c0,0.897,0.675,1.616,1.717,1.616H10.49z M12.043,21.927v-9.348H8.937   v9.348H12.043z" fill="#FFFFFF"/></g></svg>